#!OML:ASF E:\Mandelcareful walks\Project 1\Capture day 1\Session 1\Subject1.ASF
:FULLY-SPECIFIED
:DEGREES
337
root 19.203 16.7556 -14.379 -6.13196 254.486 16.4905
lowerback 7.15805 3.41391 2.99089
upperback 5.53716 4.45265 0.879398
thorax 1.88452 2.20334 -0.998231
lowerneck -24.6524 6.6013 -0.599149
upperneck 39.1086 13.5168 -9.79135
head 20.572 3.12939 -1.68181
rclavicle 6.08281e-014 -1.19271e-015
rhumerus -34.7308 20.0518 -73.5259
rradius 82.289
rwrist -20.3537
rhand -13.3792 -12.899
rfingers 7.12502
rthumb 12.7277 -42.4911
lclavicle 6.08281e-014 -1.19271e-015
lhumerus -66.2266 -18.9698 101.231
lradius 60.8627
lwrist 20.7788
lhand -20.661 -14.804
lfingers 7.12502
lthumb 5.70166 15.0993
rfemur 6.57284 -3.8999 16.7261
rtibia 20.457
rfoot 0.941168 -11.3981
rtoes -16.6633
lfemur -44.8304 8.78513 -20.3016
ltibia 53.3349
lfoot -13.8323 9.11617
ltoes -4.23272
338
root 18.5112 16.9538 -14.4914 -8.34707 254.654 19.662
lowerback 4.92091 3.83395 3.09377
upperback 5.49405 4.9659 0.91754
thorax 3.1066 2.48768 -0.878667
lowerneck -24.8787 6.46726 -0.333917
upperneck 38.8327 13.1503 -9.60845
head 20.4086 3.09026 -1.69724
rclavicle 4.57702e-014 1.98785e-016
rhumerus -35.7206 20.2979 -74.9903
rradius 83.2842
rwrist -21.6319
rhand -13.0758 -11.4261
rfingers 7.12502
rthumb 13.0201 -40.9998
lclavicle 4.57702e-014 1.98785e-016
lhumerus -67.4336 -18.4925 101.387
lradius 61.8312
lwrist 21.2776
lhand -21.2064 -15.6229
lfingers 7.12502
lthumb 5.1751 14.2939
rfemur 9.54496 -3.28828 17.2261
rtibia 15.863
rfoot 7.71121 -12.4475
rtoes -15.8427
lfemur -44.8089 8.22796 -19.7936
ltibia 46.0959
lfoot -10.8373 8.76073
ltoes -9.11289
339
root 17.8338 17.0915 -14.5966 -10.8474 254.928 22.9858
lowerback 2.81017 4.18338 3.31287
upperback 5.56273 5.37319 0.933816
thorax 4.39878 2.71862 -0.815335
lowerneck -25.6015 6.3751 -0.379124
upperneck 38.5359 13.0086 -9.33662
head 20.3534 3.08395 -1.54727
rclavicle 2.28602e-015 -2.98177e-016
rhumerus -36.3619 20.523 -76.3866
rradius 83.476
rwrist -22.747
rhand -12.8468 -10.5359
rfingers 7.12502
rthumb 13.2409 -40.0954
lclavicle 2.28602e-015 -2.98177e-016
lhumerus -68.0036 -18.2924 101.325
lradius 62.5442
lwrist 21.4192
lhand -21.3515 -16.131
lfingers 7.12502
lthumb 5.03499 13.7892
rfemur 12.2656 -2.54864 17.8529
rtibia 12.0257
rfoot 13.6621 -13.7795
rtoes -14.6575
lfemur -44.1968 7.3404 -19.0208
ltibia 40.3076
lfoot -9.08947 7.89344
ltoes -5.07949
340
root 17.1645 17.1852 -14.6961 -11.7712 255.313 24.6755
lowerback 0.862592 4.42202 2.95131
upperback 5.39567 5.65773 0.937691
thorax 5.29875 2.85886 -0.452639
lowerneck -25.7186 6.18438 -0.787892
upperneck 38.4305 12.6269 -8.60489
head 20.1291 3.00577 -1.19243
rclavicle 6.0853e-014 -2.68359e-015
rhumerus -37.5139 20.6536 -77.7986
rradius 84.1042
rwrist -23.3457
rhand -12.166 -10.4414
rfingers 7.12502
rthumb 13.8971 -39.9571
lclavicle 6.0853e-014 -2.68359e-015
lhumerus -68.5873 -17.8991 101.293
lradius 63.0489
lwrist 21.1526
lhand -21.2178 -16.8161
lfingers 7.12502
lthumb 5.16409 13.101
rfemur 13.5348 -1.844 18.0123
rtibia 11.018
rfoot 18.2894 -15.1064
rtoes -10.5933
lfemur -43.9753 6.88892 -19.2355
ltibia 36.05
lfoot -7.81258 7.52201
ltoes -6.457
341
root 16.5055 17.2377 -14.7775 -17.6468 255.472 30.896
lowerback -0.308613 4.60997 3.96017
upperback 5.1818 5.83733 1.21285
thorax 5.82807 2.99087 -0.619083
lowerneck -25.289 6.07612 -0.679529
upperneck 37.9758 12.3684 -8.64323
head 19.7134 2.97486 -1.27939
rclavicle -3.54955e-014 -2.26118e-015
rhumerus -38.833 20.6314 -79.2108
rradius 84.2732
rwrist -23.5554
rhand -11.6632 -10.9181
rfingers 7.12502
rthumb 14.3815 -40.3999
lclavicle -3.54955e-014 -2.26118e-015
lhumerus -69.1674 -17.6731 101.177
lradius 63.5475
lwrist 20.8587
lhand -21.1239 -17.1441
lfingers 7.12502
lthumb 5.2547 12.7708
rfemur 13.5931 -1.5981 19.295
rtibia 13.2279
rfoot 21.2932 -16.6159
rtoes -4.86541
lfemur -44.088 7.77848 -19.3236
ltibia 33.8758
lfoot -6.86847 7.6154
ltoes -16.1357
342
root 15.8747 17.2082 -14.8559 -21.4382 255.794 34.8401
lowerback -1.17241 4.80563 4.30049
upperback 5.0453 6.04822 1.35322
thorax 6.21116 3.11065 -0.573744
lowerneck -25.3398 5.95578 -0.674733
upperneck 37.9514 12.1726 -8.56606
head 19.6859 2.91925 -1.2856
rclavicle -3.11843e-014 1.85118e-015
rhumerus -39.7389 20.3177 -80.3581
rradius 83.9184
rwrist -23.4579
rhand -11.4452 -11.5401
rfingers 7.12502
rthumb 14.5916 -41.0068
lclavicle -3.11843e-014 1.85118e-015
lhumerus -69.2403 -17.7584 101.012
lradius 63.8281
lwrist 20.6145
lhand -21.0316 -17.5114
lfingers 7.12502
lthumb 5.34379 12.4012
rfemur 12.4217 -1.64383 19.8648
rtibia 17.8947
rfoot 23.0486 -18.3122
rtoes -0.207664
lfemur -43.4942 8.79733 -20.3182
ltibia 33.2179
lfoot -7.42861 7.56664
ltoes -19.4736
343
root 15.2488 17.1221 -14.9246 -25.7457 256.075 38.1442
lowerback -0.8196 4.76604 4.53915
upperback 5.0345 5.98881 1.56958
thorax 5.99801 3.08287 -0.518231
lowerneck -24.9965 5.98547 -0.87122
upperneck 38.1029 12.1136 -8.12284
head 19.6004 2.93719 -1.06288
rclavicle 4.71865e-014 -1.57413e-014
rhumerus -40.8576 20.5466 -81.6363
rradius 83.2641
rwrist -23.4105
rhand -11.4985 -11.6819
rfingers 7.12502
rthumb 14.5403 -41.1523
lclavicle 4.71865e-014 -1.57413e-014
lhumerus -69.2933 -17.3613 100.686
lradius 63.832
lwrist 20.1315
lhand -21.8138 -19.6371
lfingers 7.12502
lthumb 4.58861 10.2932
rfemur 12.0618 -2.46539 19.8346
rtibia 23.6029
rfoot 21.4571 -18.2172
rtoes 5.40492
lfemur -41.8614 9.7849 -21.2776
ltibia 33.9154
lfoot -6.2909 7.73329
ltoes -19.0337
344
root 14.6406 17.0008 -14.9892 -27.5772 256.706 38.7797
lowerback 0.0190979 4.70911 4.15911
upperback 5.09614 5.96776 1.53055
thorax 5.54404 3.053 -0.426992
lowerneck -24.6781 5.91876 -0.806278
upperneck 37.8573 11.9424 -8.11753
head 19.3528 2.91409 -1.1088
rclavicle 5.81321e-014 -2.57923e-014
rhumerus -41.7472 20.5503 -82.6796
rradius 82.4568
rwrist -23.4437
rhand -11.6678 -12.0576
rfingers 7.12502
rthumb 14.3771 -41.5397
lclavicle 5.81321e-014 -2.57923e-014
lhumerus -68.6636 -17.2885 100.154
lradius 63.4646
lwrist 19.8342
lhand -23.2942 -22.4603
lfingers 7.12502
lthumb 3.15897 7.49609
rfemur 10.8578 -3.58295 18.8905
rtibia 30.1994
rfoot 23.3778 -17.2978
rtoes 15.2116
lfemur -39.8046 10.5505 -22.8712
ltibia 35.2463
lfoot -5.71056 6.7383
ltoes -1.18131
345
root 14.0477 16.8315 -15.0481 -28.1508 257.522 37.9858
lowerback 1.15567 4.59227 3.48902
upperback 5.13169 5.88473 1.36881
thorax 4.87455 2.98309 -0.333671
lowerneck -24.5855 6.00958 -0.813008
upperneck 37.9824 12.0101 -7.90468
head 19.3779 2.96659 -0.994988
rclavicle -5.2504e-014 1.89839e-014
rhumerus -42.4502 20.6114 -83.6699
rradius 81.1806
rwrist -23.333
rhand -11.6304 -12.6311
rfingers 7.12502
rthumb 14.4132 -42.1106
lclavicle -5.2504e-014 1.89839e-014
lhumerus -67.6746 -17.1274 99.3316
lradius 62.8816
lwrist 19.9147
lhand -23.9265 -22.7987
lfingers 7.12502
lthumb 2.54837 7.16587
rfemur 9.86666 -4.41866 17.3808
rtibia 37.0024
rfoot 16.2622 -14.9911
rtoes 8.33861
lfemur -37.2525 10.6264 -24.3227
ltibia 37.0821
lfoot -7.41911 5.4035
ltoes 11.11
